<?xml version="1.0" encoding="UTF-8"?>
<svg width="483px" height="458px" viewBox="0 0 483 458" version="1.1" xmlns="http://www.w3.org/2000/svg" xmlns:xlink="http://www.w3.org/1999/xlink">
    <!-- Generator: Sketch 64 (93537) - https://sketch.com -->
    <title>Group 2</title>
    <desc>Created with Sketch.</desc>
    <defs>
        <linearGradient x1="17.4128655%" y1="83.1769302%" x2="83.1288773%" y2="19.5888634%" id="linearGradient-1">
            <stop stop-color="#00D9B2" offset="0%"></stop>
            <stop stop-color="#006BF7" offset="100%"></stop>
        </linearGradient>
    </defs>
    <g id="Page-1" stroke="none" stroke-width="1" fill="none" fill-rule="evenodd">
        <g id="Group-2">
            <g id="method2">
                <g id="Group" transform="translate(20.000000, 0.000000)" fill-rule="nonzero">
                    <circle id="Oval" fill="#F6F9FE" cx="28.9" cy="182" r="12.9"></circle>
                    <circle id="Oval" fill="#F6F9FE" cx="243.3" cy="133.7" r="38.8"></circle>
                    <path d="M421.4,93.4 L391.9,85.6 C385.5,83.9 381.7,77.4 383.4,71 L391.2,41.5 C392.9,35.1 399.4,31.3 405.8,33 L435.3,40.8 C441.7,42.5 445.5,49 443.8,55.4 L436,84.9 C434.4,91.3 427.8,95.1 421.4,93.4 Z" id="Path" fill="#F6F9FE"></path>
                    <path d="M60.3,69 L43.6,64.6 C40,63.6 37.8,59.9 38.8,56.3 L43.2,39.6 C44.2,36 47.9,33.8 51.5,34.8 L68.2,39.2 C71.8,40.2 74,43.9 73,47.5 L68.6,64.2 C67.7,67.8 63.9,70 60.3,69 Z" id="Path" fill="#F6F9FE"></path>
                    <path d="M103.9,450.8 L87.2,446.4 C83.6,445.4 81.4,441.7 82.4,438.1 L86.8,421.4 C87.8,417.8 91.5,415.6 95.1,416.6 L111.8,421 C115.4,422 117.6,425.7 116.6,429.3 L112.2,446 C111.3,449.6 107.6,451.7 103.9,450.8 Z" id="Path" fill="#F6F9FE"></path>
                    <path d="M426.5,457.4 L405.3,451.8 C398.9,450.1 395.1,443.6 396.8,437.2 L402.4,416 C404.1,409.6 410.6,405.8 417,407.5 L438.2,413.1 C444.6,414.8 448.4,421.3 446.7,427.7 L441.1,448.9 C439.5,455.3 432.9,459.1 426.5,457.4 Z" id="Path" fill="#F6F9FE"></path>
                    <path d="M237.7,409.8 L225.3,406.5 C222.3,405.7 220.6,402.7 221.4,399.7 L224.7,387.3 C225.5,384.3 228.5,382.6 231.5,383.4 L243.9,386.7 C246.9,387.5 248.6,390.5 247.8,393.5 L244.5,405.9 C243.7,408.8 240.6,410.6 237.7,409.8 Z" id="Path" fill="#F6F9FE"></path>
                    <path d="M408.3,157.3 C401.8,157.3 396.5,162.6 396.5,169.1 C396.5,175.6 401.8,180.9 408.3,180.9 C414.8,180.9 420.1,175.6 420.1,169.1 L420.1,169.1 L420.1,169.1 C420.1,162.6 414.8,157.4 408.3,157.3 L408.3,157.3 Z M408.5,169.5 L407.3,173.6 L413.9,173.6 C414.1,173.6 414.2,173.7 414.2,173.9 L414.2,173.9 L414.2,174 L413.6,176 C413.5,176.2 413.4,176.3 413.2,176.3 L403.2,176.3 L404.9,170.6 L403,171.2 L403.4,169.9 L405.3,169.3 L407.7,161.3 C407.8,161.1 407.9,161 408.1,161 L410.6,161 C410.8,161 410.9,161.1 410.9,161.3 L410.9,161.3 L410.9,161.4 L408.9,168.2 L410.8,167.6 L410.4,169 L408.5,169.5 Z" id="Shape" fill="#6D30ED"></path>
                    <g transform="translate(129.000000, 0.000000)">
                        <circle id="Oval" fill="#6D30ED" cx="16.8" cy="16.1" r="16"></circle>
                        <path d="M23.9,14.1 C24.2,12 22.6,10.9 20.4,10.1 L21.1,7.3 L19.4,6.9 L18.7,9.7 C18.2,9.6 17.8,9.5 17.3,9.4 L18,6.6 L16.3,6.2 L15.6,9 C15.2,8.9 14.9,8.8 14.5,8.7 L14.5,8.7 L12.1,8.1 L11.6,9.9 L12.9,10.2 C13.6,10.4 13.7,10.8 13.7,11.2 L13,14.5 C13,14.5 13.1,14.5 13.2,14.6 L13,14.6 L11.9,19.1 C11.8,19.3 11.6,19.6 11.1,19.5 L9.8,19.2 L8.9,21.2 L11.2,21.8 C11.6,21.9 12,22 12.4,22.1 L11.7,25 L13.4,25.4 L14.1,22.6 C14.6,22.7 15,22.8 15.5,23 L14.8,25.8 L16.5,26.2 L17.2,23.3 C20.1,23.9 22.4,23.6 23.3,21 C24.1,18.9 23.3,17.6 21.7,16.8 C22.9,16.4 23.7,15.6 23.9,14.1 Z M20,19.6 C19.5,21.7 15.9,20.6 14.7,20.3 L15.6,16.5 C16.8,16.8 20.6,17.4 20,19.6 Z M20.5,14.1 C20,16.1 17,15.1 16,14.8 L16.9,11.4 C17.9,11.6 21,12 20.5,14.1 Z" id="Shape" fill="#FFFFFF"></path>
                    </g>
                    <g transform="translate(169.000000, 354.000000)" id="Path">
                        <polygon fill="#6D30ED" points="3.7 0 3.8 0.9 14.2 24.4 14.6 24.5 22.6 13.2"></polygon>
                        <polygon fill="#8D67F4" points="3.7 0 0.9 22.9 14.6 24.5 9.5 13.1"></polygon>
                        <polygon fill="#6D30ED" points="15.5 26.5 15.4 26.8 19.2 35.1 19.5 35.4 23.5 15.3"></polygon>
                        <polygon fill="#8D67F4" points="19.5 35.4 15.5 26.5 1.8 25"></polygon>
                        <polygon fill="#4C22BF" points="14.6 24.5 22.6 13.2 9.5 13.1"></polygon>
                        <polygon fill="#6D30ED" points="0.9 22.9 14.6 24.5 9.5 13.1"></polygon>
                    </g>
                    <g transform="translate(235.000000, 232.000000)">
                        <circle id="Oval" fill="#767DFF" cx="16" cy="16.5" r="16"></circle>
                        <path d="M16,26.5 C15.4,26.5 14.7,26.3 14.2,26 L8.9,22.9 C7.8,22.2 7,21 7,19.6 L7,13.4 C7,12.1 7.7,10.8 8.9,10.1 L14.2,7 C14.8,6.7 15.4,6.5 16.1,6.5 C16.7,6.5 17.4,6.7 17.9,7 L23.2,10.1 C24.3,10.8 25.1,12 25.1,13.4 L25.1,19.6 C25.1,20.9 24.4,22.2 23.2,22.9 L17.9,26 C17.3,26.3 16.6,26.5 16,26.5 Z M12.9,20.1 L11.9,21.1 C12.4,21.6 13.1,21.9 13.9,21.9 C15.4,21.9 16.7,20.6 16.7,19.1 L16.7,18.2 C17.1,18.4 17.6,18.6 18.1,18.6 C18.8,18.6 19.6,18.3 20.1,17.8 L19.1,16.8 C18.8,17.1 18.5,17.2 18.1,17.2 C17.3,17.2 16.7,16.6 16.7,15.8 L16.7,11.1 L15.3,11.1 L15.3,19.1 C15.3,19.9 14.7,20.5 13.9,20.5 C13.6,20.5 13.2,20.3 12.9,20.1 Z" id="Shape" fill="#FFFFFF"></path>
                    </g>
                    <g transform="translate(427.000000, 32.000000)">
                        <circle id="Oval" fill="#767DFF" cx="16.1" cy="16.6" r="16"></circle>
                        <path d="M13.9,7.1 L18.4,7.1 C18.7,7.1 19,7.3 19.2,7.5 L26.1,19.8 C26.2,20.1 26.2,20.4 26.1,20.6 L23.9,24.5 C23.7,24.8 23.5,24.9 23.1,24.9 L9.2,24.9 C8.9,24.9 8.6,24.7 8.4,24.5 L6.2,20.6 C6.1,20.3 6.1,20 6.2,19.8 L13.1,7.5 C13.3,7.2 13.6,7.1 13.9,7.1 Z M16.1,12 L11.4,20.3 L20.7,20.3 L16.1,12 Z" id="Shape" fill="#FFFFFF"></path>
                    </g>
                    <g transform="translate(0.000000, 148.000000)">
                        <circle id="Oval" fill="#767DFF" cx="16.5" cy="16.4" r="16"></circle>
                        <g transform="translate(6.000000, 8.000000)" fill="#FFFFFF" id="Path">
                            <path d="M13.6,0.4 L6.3,0.4 L5.7,3.8 L12.3,3.8 C15.5,3.8 16.5,5 16.5,6.9 C16.5,7.9 16.1,9.6 15.9,10.1 C15.4,11.6 14.4,13.2 10.5,13.2 L4.1,13.2 L3.5,16.6 L10.8,16.6 C13.4,16.6 14.4,16.3 15.6,15.8 C18.2,14.6 19.7,12.1 20.3,8.8 C21.1,3.8 20,0.4 13.6,0.4 L13.6,0.4 Z"></path>
                            <path d="M10.3,8.2 C10.5,7.2 10.6,6.8 10.6,6.8 L3.2,6.8 C1.3,6.8 1,8 0.8,8.8 C0.6,9.8 0.5,10.2 0.5,10.2 L8,10.2 C9.9,10.1 10.2,8.9 10.3,8.2 Z"></path>
                        </g>
                    </g>
                </g>
                <g id="Group" transform="translate(84.000000, 149.000000)" stroke="#6F7592" stroke-width="3">
                    <path d="M5.2,57.6 C5.2,57.6 16.9,10.3 96.1,5.4" id="Path"></path>
                    <polyline id="Path" points="11 55.1 4.8 59.2 0.7 52.9"></polyline>
                    <polyline id="Path" points="91.6 0.6 97.8 4.9 93.5 11"></polyline>
                </g>
                <g id="Group" transform="translate(307.000000, 149.000000)" stroke="#6F7592" stroke-width="3">
                    <path d="M92.8,57.6 C92.8,57.6 81.1,10.3 1.9,5.4" id="Path"></path>
                    <polyline id="Path" points="87 55.1 93.2 59.2 97.3 52.9"></polyline>
                    <polyline id="Path" points="6.4 0.6 0.2 4.9 4.5 11"></polyline>
                </g>
                <polygon id="Path" fill="#FFFFFF" fill-rule="nonzero" points="36.4 271.9 32.1 270.5 29.5 265.9 28.6 261.5 28.6 258.3 29.3 255.9 31.8 254.8 35.4 244.6 41 234.1 79.3 233.4 82.6 244.6 82.6 253.9 83.8 255.3 86.1 255.1 88 257.4 88.3 263.6 85.8 269.6 82.6 271.4 79.7 272.1 69.9 296.9 70.4 303.4 72 307.7 75.3 312.8 71.7 313.9 64.4 315 57.1 315.4 50.2 314.9 40.5 313.5 44.8 307.5 45.9 302.8 45.9 294.5 38.4 277.7"></polygon>
                <path d="M82.6,254.4 L78.8,249.2 C79.3,256.5 79.3,264.5 77.5,271.7 C76.9,273.8 75.6,277.8 73.3,277.6 C70.9,277.4 64.3,274.4 58.8,274.2 C53.5,274.1 48.6,276.4 43.4,277 C39.8,277.4 39.2,275.5 38.7,272.3 C37.7,265.9 37.1,260.1 37.1,253.6 C37.1,252.7 36.5,250.1 37.2,249.3 L33.4,254.5 C33.9,272.1 38.1,282.5 38.1,282.5 C38.6,284.6 39.6,287.3 39.8,287.8 C41.7,292.4 45.3,297.2 49.9,299.2 C60.9,304.1 71.5,302.3 77.9,287.7 C82.5,277.1 82.3,265.4 82.6,254.4 Z M67.8,284.3 C65.6,286.8 62.3,287.8 59,287.7 C58.1,287.7 57.3,287.5 56.5,287.3 C54.7,286.9 52.9,286.2 51.4,285.2 C50.7,284.7 47.3,281.5 48.1,280.4 C48.1,280.4 49.5,278.5 58.8,278.7 C68.1,278.9 69.5,280.9 69.5,280.9 C70,281.5 68.2,284 67.8,284.3 Z" id="Shape" fill="#40405B" fill-rule="nonzero"></path>
                <g id="Group" transform="translate(0.000000, 216.000000)" fill-rule="nonzero">
                    <circle id="Oval" fill="#99E6F2" cx="57.6" cy="79.2" r="44.8"></circle>
                    <polygon id="Path" fill="#FFFFFF" points="36.5 55.9 32.2 54.5 29.6 49.9 28.7 45.5 28.7 42.3 29.5 39.9 31.9 38.8 35.6 28.6 41.1 18.1 79.4 17.4 82.7 28.6 82.7 37.9 83.9 39.3 86.2 39.1 88.1 41.4 88.4 47.6 86 53.6 82.7 55.4 79.9 56.1 70 80.9 70.6 87.4 72.1 91.7 75.4 96.8 71.8 97.9 64.6 99 57.2 99.4 50.3 98.9 40.6 97.5 44.9 91.5 46.1 86.8 46.1 78.5 38.5 61.7"></polygon>
                    <path d="M1.4,125 C1.4,125 7,112.9 17.6,108.9 L26.6,105.4 C26.6,105.4 39,100.6 41.3,98.2 C41.3,98.2 64.3,101.5 74.8,96.7 C74.8,96.7 84.3,103.2 87.3,104.2 C87.3,104.2 101.9,108.1 106.7,113.5 C106.7,113.5 114.9,119.1 114.6,125.1 L1.4,125 L1.4,125 Z" id="Path" fill="#9043FF"></path>
                    <path d="M35.2,44.7 C36.8,39.4 36.7,25.7 43.6,24 C46.5,23.3 56.3,31.3 69.9,24 C75.3,21.1 80.8,39.8 81.8,42.5 L82.2,40.1 L84.7,38.2 C84.7,38.2 95.2,5.68434189e-14 57.3,0.8 C19.4,1.5 30.3,38.5 30.3,38.5 C30.3,38.5 34.7,37.8 35.2,44.7 Z" id="Path" fill="#40405B"></path>
                    <path d="M4.6,120.1 C7.7,114.6 13.5,110.4 19.4,107.8 C21.8,113.3 22.1,119.2 21.6,125.1 L23.1,125.1 C23.6,119 23.3,113 20.8,107.3 C26.5,105.1 32.6,103.9 37.7,100.5 C37.8,100.4 37.9,100.4 38,100.3 C39,99.7 39.9,99 40.7,98.3 C40.8,98.4 40.9,98.5 41.1,98.6 C52.5,100.6 64.1,101.4 75.3,98.1 L75.3,98.1 C75.7,98.5 76.2,98.9 76.7,99.3 C82.1,103.6 89.7,105 96,107.6 C96.3,107.7 96.5,107.8 96.8,107.9 C92.8,112.3 91.9,119 92,125.2 L93.5,125.2 C93.4,119.1 94.3,112.7 98.3,108.6 C103.7,111.2 108.8,115.2 111.7,120.2 C112.6,121.8 113.3,123.6 114,125.2 L115.4,125.2 C114,121.3 111.9,117.3 109,114.1 C104.8,109.3 98.1,106.7 92.1,104.7 C82.2,101.5 72,97.7 71,85.7 C70.7,82.8 70.9,79.8 70.9,76.8 C75.6,73.5 78.5,67.7 80,61.9 C81.9,54.7 82.5,46.9 81.9,39.4 C81.4,39.6 81,39.8 80.5,39.9 C81,46.8 80.4,53.9 78.8,60.6 C76.9,68.6 72.4,77.5 63.1,78 C62.9,78 62.9,79.5 63.1,79.5 C65.5,79.4 67.7,78.7 69.6,77.7 C69.6,80 69.5,82.2 69.7,84.5 C70,88.9 71.5,93.3 74.4,96.7 C63.8,99.6 52.9,99 42.1,97.1 C45.5,93.5 46.5,89.2 46.8,84.5 C47,81.9 46.8,79.3 46.9,76.7 C48.5,77.7 50.4,78.5 52.4,78.9 C53.3,79.1 53.6,77.6 52.6,77.4 C45.1,76 40.9,69.3 38.6,62.6 C36.2,55.7 35.5,48.3 35.5,41.1 C35.5,40.2 34,40.3 34,41.3 C34,48.9 34.9,56.7 37.4,63.9 C39,68.5 41.6,72.9 45.4,75.9 C45.3,79.2 45.5,82.6 45.2,85.9 C44.9,89.8 43.4,93.4 40.8,96.4 C36.6,101.4 30,103 24,104.9 C18,106.8 11.3,109.5 7.1,114.3 C4.3,117.5 2.1,121.5 0.7,125.4 L2.1,125.4 C3,123.5 3.7,121.6 4.6,120.1 Z" id="Path" fill="#38332D"></path>
                    <path d="M82,39.5 C81.3,40 82,41.2 82.7,40.7 C87,37.4 87.8,42.1 87.7,45.6 C87.6,49.7 85.8,54.6 81.1,55.1 C80.2,55.2 80.2,56.6 81.1,56.5 C87.2,55.9 89.1,49.7 89,44.3 C89.1,39.6 86.5,36.1 82,39.5 Z" id="Path" fill="#38332D"></path>
                    <path d="M35.1,39.5 C35.8,40 35.1,41.2 34.4,40.7 C30.1,37.4 29.3,42.1 29.4,45.6 C29.5,49.7 31.3,54.6 36,55.1 C36.9,55.2 36.9,56.6 36,56.5 C29.9,55.9 28,49.7 28.1,44.3 C28,39.6 30.6,36.1 35.1,39.5 Z" id="Path" fill="#38332D"></path>
                    <path d="M82.7,38.6 L78.9,33.4 C79.4,40.7 79.4,48.7 77.6,55.9 C77,58 75.7,62 73.4,61.8 C71,61.6 64.4,58.6 58.9,58.4 C53.6,58.3 48.7,60.6 43.5,61.2 C39.9,61.6 39.3,59.7 38.8,56.5 C37.8,50.1 37.2,44.3 37.2,37.8 C37.2,36.9 36.6,34.3 37.3,33.5 L33.5,38.7 C34,56.3 38.2,66.7 38.2,66.7 C38.7,68.8 39.7,71.5 39.9,72 C41.8,76.6 45.4,81.4 50,83.4 C61,88.3 71.6,86.5 78,71.9 C82.6,61.3 82.4,49.7 82.7,38.6 Z M67.9,68.5 C65.7,71 62.4,72 59.1,71.9 C58.2,71.9 57.4,71.7 56.6,71.5 C54.8,71.1 53,70.4 51.5,69.4 C50.8,68.9 47.4,65.7 48.2,64.6 C48.2,64.6 49.6,62.7 58.9,62.9 C68.2,63.1 69.6,65.1 69.6,65.1 C70.1,65.7 68.3,68.2 67.9,68.5 Z" id="Shape" fill="#40405B"></path>
                </g>
                <path d="M82,255.5 C81.3,256 82,257.2 82.7,256.7 C87,253.4 87.8,258.1 87.7,261.6 C87.6,265.7 85.8,270.6 81.1,271.1 C80.2,271.2 80.2,272.6 81.1,272.5 C87.2,271.9 89.1,265.7 89,260.3 C89.1,255.6 86.5,252.1 82,255.5 Z" id="Path" fill="#38332D" fill-rule="nonzero"></path>
                <path d="M35.1,255.5 C35.8,256 35.1,257.2 34.4,256.7 C30.1,253.4 29.3,258.1 29.4,261.6 C29.5,265.7 31.3,270.6 36,271.1 C36.9,271.2 36.9,272.6 36,272.5 C29.9,271.9 28,265.7 28.1,260.3 C28,255.6 30.6,252.1 35.1,255.5 Z" id="Path" fill="#38332D" fill-rule="nonzero"></path>
                <path d="M35.2,260.7 C36.8,255.4 36.7,241.7 43.6,240 C46.5,239.3 56.3,247.3 69.9,240 C75.3,237.1 80.8,255.8 81.8,258.5 L82.2,256.1 L84.7,254.2 C84.7,254.2 95.2,216 57.3,216.8 C19.4,217.5 30.3,254.5 30.3,254.5 C30.3,254.5 34.7,253.8 35.2,260.7 Z" id="Path" fill="#40405B" fill-rule="nonzero"></path>
                <path d="M59.3,285 C54.8,285 52.8,283.6 52.4,282.8 C52,282.1 51.8,281.5 51.9,280.6 C51.9,280.5 52,280.4 52,280.3 C52.1,280.2 52.2,280.2 52.3,280.2 C52.4,280.2 62.9,281.2 65.7,280.6 C65.8,280.6 66,280.6 66.1,280.7 C66.2,280.8 66.2,280.9 66.2,281.1 C66.2,281.1 65.3,284.8 60.1,285 C59.7,285 59.5,285 59.3,285 Z M52.6,281.1 C52.6,281.6 52.8,281.9 53.1,282.5 C53.4,283 55.2,284.4 60,284.3 C63.3,284.2 64.7,282.5 65.1,281.6 C61.9,281.9 54.5,281.3 52.6,281.1 Z" id="Shape" fill="#38332D" fill-rule="nonzero"></path>
                <path d="M70.7,264 C70.6,264 70.5,264 70.4,263.9 C69.8,263.1 69.1,262.8 68.3,262.7 L68.3,262.7 C67,262.7 66,263.8 66,263.9 C65.9,264.1 65.6,264.1 65.4,263.9 C65.2,263.8 65.2,263.5 65.4,263.3 C65.5,263.2 66.7,261.9 68.3,261.9 L68.3,261.9 C69.3,261.9 70.2,262.4 71,263.3 C71.1,263.5 71.1,263.7 71,263.9 C70.9,264 70.8,264 70.7,264 Z" id="Path" fill="#38332D" fill-rule="nonzero"></path>
                <path d="M51.1,264 C51,264 50.9,264 50.8,263.9 C50.2,263.1 49.5,262.7 48.7,262.7 L48.7,262.7 C47.4,262.7 46.4,263.8 46.4,263.9 C46.3,264.1 46,264.1 45.8,263.9 C45.6,263.8 45.6,263.5 45.8,263.3 C45.9,263.2 47.1,261.9 48.7,261.9 C49.7,261.9 50.6,262.4 51.4,263.3 C51.5,263.5 51.5,263.7 51.4,263.9 C51.3,264 51.2,264 51.1,264 Z" id="Path" fill="#38332D" fill-rule="nonzero"></path>
                <g id="Group" transform="translate(374.000000, 217.000000)" fill-rule="nonzero">
                    <polygon id="Path" fill="#FFFFFF" points="43 24 66.1 24 66.1 38 41 38 41 24"></polygon>
                    <g>
                        <circle id="Oval" fill="#CAACF9" cx="54.1" cy="78.7" r="44.8"></circle>
                        <polygon id="Path" fill="#FFFFFF" points="0.7 126.2 3 118.9 4.5 115.5 11 108.1 17 104.6 27.1 100.9 36.9 96.9 41.5 89.7 42.5 85.5 42.8 79.7 42.8 74.1 38.9 70.1 36.7 66.2 34.9 61.8 34.4 59.6 29.5 58.1 26.9 55.1 26.1 51.2 27 48.5 29.3 46.8 32 46.2 32.8 31.1 49.1 21 73.9 22.2 79.9 41.5 76.6 45.4 77.3 46.7 80.3 47.3 82.2 49.4 82.9 52.8 81.3 56.6 79.4 58.3 77.4 59.2 74.9 59.9 70.9 70.3 67 74.7 65.5 75.7 65.8 82.9 66.7 88.6 68.9 93.2 72.6 96.9 80.5 100.8 91.6 104.5 98.2 108.6 100.6 110.8 104.1 115.9 107.4 122.9 107.4 124.1"></polygon>
                        <g>
                            <path d="M89.9,55.6 C85.9,46.7 87.2,34.9 86.3,25.4 C85.7,19.2 83.1,13.1 79.5,8 C76.8,4.3 71.1,0.7 66.4,0.3 C62.5,-0.1 58.1,1.2 55.1,3.8 C52.4,6.2 48.8,8.6 49.1,12.6 C49.1,12.6 50.6,17.3 52.8,24 C60.4,20.9 71.5,27.1 74,34.4 C75.5,38.8 76.2,43.3 76.1,47.8 C77.2,47.3 78.4,47.1 79.4,47.7 C79.7,47.8 80,47.9 80.3,48.1 C80.8,48.4 81.1,48.8 81.4,49.3 C81.5,49.4 81.5,49.4 81.6,49.4 C83.5,50.9 82.9,52.9 81.7,54.5 C80.8,57.1 78.6,58.8 76,58.7 C75.6,58.8 75.1,58.9 74.7,59 C74.6,59 74.4,59 74.3,59 C73.7,61.2 72.9,63.3 71.9,65.3 L71.9,65.4 C71.1,67.9 70.2,70.2 68.5,72 C70.3,73.5 77.6,74.3 79.3,74.4 C84.1,74.6 89.1,73.4 93.1,70.7 C97.8,67.4 99.5,65.2 101.8,58.5 C100.2,63.5 91.8,59.7 89.9,55.6 Z" id="Path" fill="#FFC931"></path>
                            <g transform="translate(0.000000, 10.000000)">
                                <path d="M90.8,113.5 C89.2,105.5 86.1,92.6 82.4,91.8 C76.9,90.5 74.2,87.2 74.2,87.2 C54.6,118.3 35.6,88.4 35.6,88.4 C35.6,88.4 27.7,89.2 26,91 C22.7,94.6 21.6,106.1 21.1,113.4 L90.8,113.4 L90.8,113.5 Z" id="Path" fill="#54BBD3"></path>
                                <g>
                                    <g transform="translate(0.000000, 25.000000)" fill="#38332D" id="Shape">
                                        <path d="M49.3,41.6 C42.2,40.2 37.9,33.5 35.7,27.2 C33.5,20.7 32.7,13.6 32.7,6.8 C32.7,5.9 31.3,6.1 31.3,7 C31.3,8.3 31.3,9.6 31.4,10.8 C28,10.9 24.9,14.2 25.5,18 C26.2,21.9 29.5,24.7 33.3,25.2 C33.4,25.2 33.5,25.2 33.6,25.2 C33.9,26.3 34.2,27.3 34.6,28.4 C36.1,32.8 38.6,37 42.2,39.7 C42.1,42.9 42.3,46 42.1,49.2 C41.8,52.9 40.4,56.3 38,59.1 C34,63.8 27.7,65.4 22.1,67.2 C16.5,69 11.4,71.3 7.4,75.8 C4.3,79.4 2,84.1 0.7,88.1 L2,88.1 C2.7,87.1 3.6,83.7 4.8,81.6 C7.9,76.1 12.5,72.2 18.3,69.8 C22,68.3 25.8,67 29.7,66 C41.3,63 43.2,53 43.5,48.1 C43.7,45.6 43.5,43.2 43.5,40.7 C45.1,41.7 47.2,42.8 49.1,43.2 C50,43.2 50.2,41.8 49.3,41.6 Z M27.2,18.7 C26,15.4 28.5,12.2 31.6,12.1 C31.8,16 32.4,19.9 33.4,23.7 C30.4,23.4 28.1,21.4 27.2,18.7 Z"></path>
                                        <path d="M101.3,75.7 C97.3,71.2 92.2,68.8 86.6,67 C81,65.2 74.7,63.7 70.7,59 C68.3,56.2 66.9,52.8 66.6,49.1 C66.4,46.3 66.5,43.5 66.5,40.7 C71,37.6 73.7,32 75.1,26.6 C75.2,26.1 75.3,25.7 75.5,25.2 C75.6,25.2 75.6,25.2 75.7,25.2 C79.5,24.7 82.8,21.9 83.5,18 C84.2,14.1 80.9,10.7 77.5,10.8 C77.4,10.8 77.3,10.8 77.3,10.8 C77.3,7.4 77.1,4.1 76.6,0.8 C76.5,-0.1 75.1,0.3 75.3,1.2 C76.4,9.1 76,17.6 74.2,25.4 C72.4,33 68.1,41.8 59.3,42.3 C58.4,42.4 58.4,43.7 59.3,43.7 C61.6,43.6 63.6,42.6 65.4,41.6 C65.4,43.7 65.3,45.9 65.5,48 C66.1,58.3 71,63.7 80.5,66.6 C84,67.6 87.3,68.6 90.6,69.9 C96.4,72.3 101,76.1 104.1,81.6 C105.3,83.7 106.2,87.1 106.9,88.1 L108.2,88.1 C106.7,84 104.4,79.3 101.3,75.7 Z M77.1,12.1 C77.2,12.1 77.3,12.1 77.3,12.1 C80.4,12.1 82.9,15.3 81.7,18.7 C80.8,21.4 78.5,23.3 75.7,23.7 C76.5,20 77,16.1 77.1,12.1 Z"></path>
                                    </g>
                                    <path d="M70.3,43.2 C74.6,46 65.9,50.8 63.3,47.6 C60.6,44.4 67.9,41.6 70.3,43.2 Z" id="Path" fill="#E84376" opacity="0.2"></path>
                                    <path d="M39,44 C34.5,46.9 43.5,51.9 46.3,48.6 C49.2,45.2 41.6,42.3 39,44 Z" id="Path" fill="#E84376" opacity="0.2"></path>
                                    <path d="M31.4,31.9 C31.4,31.9 49.5,31.1 54.2,19 C54.2,19 59.7,29.3 77,31.1 C77,31.1 86.6,0 54,0 C22.8,0 31.4,31.9 31.4,31.9 Z" id="Path" fill="#FFC931"></path>
                                </g>
                            </g>
                        </g>
                    </g>
                    <path d="M31.4,41.9 C31.4,41.9 49.5,41.1 54.2,29 C54.2,29 59.7,39.3 77,41.1 C77,41.1 86.6,10 54,10 C22.8,10 31.4,41.9 31.4,41.9 Z" id="Path" fill="#FFC931"></path>
                    <path d="M100.1,60.7 C91.1,57.9 89.1,47.1 90.1,37.3 C91.1,27.5 88.1,18.3 88.1,18.3 C88.1,18.3 84.1,2.5 70.3,0.3 C56.5,-1.9 52.4,12.1 52.4,12.1 L56.1,24 C66.8,22 72.8,26.3 76.2,31.6 L74.8,38.2 L80.4,46.6 C81.8,46.5 83.6,47 85.7,48 C87.8,49 87.2,52.3 87.2,53.7 C87.2,55.1 85.5,57 82.9,58.6 C80.3,60.2 78.6,60.1 78.6,60.1 L71.8,72.1 C97.8,82.2 105,58.8 105,58.8 C103.9,61.8 100.1,60.7 100.1,60.7 Z" id="Path" fill="#FFC931"></path>
                    <path d="M54.9,69.7 C50.4,69.7 48.4,68.3 48,67.5 C47.6,66.8 47.4,66.2 47.5,65.3 C47.5,65.2 47.6,65.1 47.6,65 C47.7,64.9 47.8,64.9 47.9,64.9 C48,64.9 58.5,65.9 61.3,65.3 C61.4,65.3 61.6,65.3 61.7,65.4 C61.8,65.5 61.8,65.6 61.8,65.8 C61.8,65.8 60.9,69.5 55.7,69.7 C55.4,69.7 55.1,69.7 54.9,69.7 Z M48.2,65.7 C48.2,66.2 48.4,66.5 48.7,67.1 C49,67.6 50.8,69 55.6,68.9 C58.9,68.8 60.3,67.1 60.7,66.2 C57.5,66.6 50.1,65.9 48.2,65.7 Z" id="Shape" fill="#38332D"></path>
                    <path d="M66.4,48.7 C66.3,48.7 66.2,48.7 66.1,48.6 C65.5,47.8 64.8,47.5 64,47.4 L64,47.4 C62.7,47.4 61.7,48.5 61.7,48.6 C61.6,48.8 61.3,48.8 61.1,48.6 C60.9,48.5 60.9,48.2 61.1,48 C61.2,47.9 62.4,46.6 64,46.6 L64,46.6 C65,46.6 65.9,47.1 66.7,48 C66.8,48.2 66.8,48.4 66.7,48.6 C66.6,48.7 66.5,48.7 66.4,48.7 Z" id="Path" fill="#38332D"></path>
                    <path d="M46.8,48.7 C46.7,48.7 46.6,48.7 46.5,48.6 C45.9,47.8 45.2,47.4 44.4,47.4 L44.4,47.4 C43.1,47.4 42.1,48.5 42.1,48.6 C42,48.8 41.7,48.8 41.5,48.6 C41.3,48.5 41.3,48.2 41.5,48 C41.6,47.9 42.8,46.6 44.4,46.6 C45.4,46.6 46.3,47.1 47.1,48 C47.2,48.2 47.2,48.4 47.1,48.6 C46.9,48.7 46.8,48.7 46.8,48.7 Z" id="Path" fill="#38332D"></path>
                </g>
                <g id="Group" transform="translate(219.000000, 114.000000)" fill-rule="nonzero">
                    <path d="M20.2,34.4 C20.2,18.9 30.6,5.9 44.7,1.7 C41.7,0.8 38.4,0.3 35,0.3 C16.1,0.3 0.9,15.6 0.9,34.4 C0.9,53.3 16.2,68.5 35,68.5 C38.4,68.5 41.6,68 44.7,67.1 C30.6,63 20.2,49.9 20.2,34.4 Z" id="Path" fill="#767DFF"></path>
                    <path d="M45.7,21.1 C54.1,21.1 61.1,26.7 63.3,34.2 C63.8,32.5 64.1,30.8 64.1,29 C64.1,18.9 55.9,10.6 45.7,10.6 C35.5,10.6 27.3,18.8 27.3,29 C27.3,30.8 27.6,32.6 28.1,34.2 C30.3,26.7 37.4,21.1 45.7,21.1 Z" id="Path" fill="#6D30ED"></path>
                    <path d="M52.2,40.4 C52.2,46.6 48.1,51.8 42.4,53.5 C43.6,53.8 44.9,54 46.2,54 C53.8,54 59.9,47.9 59.9,40.3 C59.9,32.7 53.8,26.6 46.2,26.6 C44.9,26.6 43.6,26.8 42.4,27.1 C48,29 52.2,34.2 52.2,40.4 Z" id="Path" fill="#9FA8FF"></path>
                </g>
            </g>
            <circle id="Oval" fill="#001546" cx="254" cy="148" r="36"></circle>
            <circle id="Oval" fill="#4C22BF" cx="165.5" cy="16.5" r="16.5"></circle>
            <circle id="Oval" fill="#767DFF" cx="462.5" cy="48.5" r="14.5"></circle>
            <circle id="Oval" fill="#767DFF" cx="35.5" cy="163.5" r="14.5"></circle>
            <circle id="Oval" fill="#767DFF" cx="269.5" cy="248.5" r="14.5"></circle>
            <ellipse id="Oval" fill="#6D30ED" cx="428" cy="168.5" rx="9" ry="9.5"></ellipse>
            <circle id="Oval" fill="#767DFF" cx="462.5" cy="48.5" r="14.5"></circle>
            <rect id="Rectangle" fill="#FFFFFF" x="189" y="352" width="33" height="38" rx="8"></rect>
            <text id="£" font-family="Helvetica-Bold, Helvetica" font-size="20" font-weight="bold" fill="#EEEEDD">
                <tspan x="458" y="55">£</tspan>
            </text>
            <text id="€" font-family="Helvetica-Bold, Helvetica" font-size="18" font-weight="bold" fill="#EEEEDD">
                <tspan x="158" y="23">€</tspan>
            </text>
            <text id="€" font-family="Helvetica-Bold, Helvetica" font-size="13" font-weight="bold" fill="#EEEEDD">
                <tspan x="423" y="174">€</tspan>
            </text>
            <text id="$" font-family="Helvetica-Bold, Helvetica" font-size="20" font-weight="bold" fill="#EEEEDD">
                <tspan x="266" y="256">$</tspan>
            </text>
            <text id="£" font-family="Helvetica-Bold, Helvetica" font-size="15" font-weight="bold" fill="#EEEEDD">
                <tspan x="32" y="169">£</tspan>
            </text>
            <g id="rez-nav-logo-dark" transform="translate(228.000000, 138.000000)" fill-rule="nonzero">
                <path d="M9.63007763,23.5654018 C9.62935291,23.8044378 9.82061813,23.998908 10.0575134,24 L10.0575134,24 C10.2946642,24 10.4869129,23.8060152 10.4869129,23.5667228 C10.4869129,23.3274304 10.2946642,23.1334451 10.0575134,23.1334451 L10.0575134,23.1334451 C9.94380313,23.1332703 9.83468114,23.1786814 9.75415309,23.2596889 C9.67362504,23.3406964 9.62828738,23.4506647 9.62811391,23.5654018 M14.5315155,20.5549177 C14.3451479,20.6630141 14.267128,20.8938051 14.3491791,21.0942879 C14.4312302,21.2947706 14.6479039,21.4027649 14.8555565,21.346676 C15.063209,21.290587 15.1974364,21.0878109 15.1692527,20.872778 C15.1410689,20.6577452 14.9592152,20.4971485 14.7442515,20.4974552 C14.6695584,20.4973452 14.5961649,20.5171695 14.5315155,20.5549177 M4.90930172,20.1051284 C4.50759971,20.3391244 4.34020273,20.8374479 4.51810602,21.2696776 C4.6960093,21.7019072 5.16402277,21.9339544 5.61182261,21.8119566 C6.05962245,21.6899588 6.34828985,21.2517627 6.28641927,20.7879214 C6.22454869,20.32408 5.83133396,19.9784886 5.36750238,19.98029 C5.20660405,19.9809549 5.0486632,20.0239841 4.90930172,20.1051284 M6.94117775e-06,17.9255327 C-0.000712939702,18.1648234 0.190948824,18.3593976 0.428097983,18.3601289 C0.665247143,18.360856 0.858080548,18.167464 0.858805972,17.9281732 C0.859527314,17.6888825 0.667866746,17.4943071 0.430717591,17.4935759 L0.430717591,17.4935759 C0.193714727,17.4932099 0.00109090169,17.6863917 6.94117775e-06,17.9255327 M9.62942102,17.9255327 C9.62870114,18.1648234 9.82036291,18.3593976 10.0575121,18.3601289 C10.2946612,18.360856 10.4874946,18.167464 10.4882201,17.9281732 C10.4889414,17.6888825 10.2972808,17.4943071 10.0601317,17.4935764 L10.0601317,17.4935764 C9.82349121,17.4935764 9.63145367,17.6867563 9.6307322,17.9255327 M19.2640737,17.1772048 C18.8634315,17.411557 18.6971391,17.9093513 18.8754286,18.3406093 C19.0537181,18.7718674 19.5213004,19.0028525 19.9682243,18.8804491 C20.4151481,18.7580457 20.7028186,18.3202121 20.6405446,17.8571798 C20.5782706,17.3941474 20.1853637,17.0495066 19.7222744,17.0517024 C19.5613129,17.0525411 19.4033605,17.0958011 19.2640737,17.1772048 M4.85169935,14.5405544 C4.34930479,14.8328757 4.1395374,15.4557141 4.3613876,15.9963812 C4.5832378,16.5370482 5.1679482,16.8279766 5.72809376,16.6763991 C6.28823932,16.5248217 6.65021576,15.9777164 6.57418001,15.3975914 C6.49814426,14.8174664 6.00766186,14.3841182 5.42772304,14.3846797 C5.22549648,14.3848144 5.02685531,14.4385674 4.85169935,14.5405544 M14.1669187,14.1885166 C13.6655825,14.481193 13.4569176,15.1035025 13.679153,15.6431995 C13.9013884,16.1828965 14.4856681,16.4727648 15.0449392,16.3207827 C15.6042103,16.1688006 15.9651918,15.6220573 15.8887535,15.0427399 C15.8123152,14.4634225 15.3221403,14.031023 14.7429424,14.0319804 C14.5406605,14.0323479 14.3420232,14.0863277 14.1669187,14.1885166 M4.46144081e-06,12.4983392 C-0.000784732301,12.6736412 0.103188637,12.8321521 0.26341865,12.8999161 C0.423648663,12.9676802 0.608558302,12.931343 0.73187503,12.8078581 C0.855191758,12.6843733 0.892613171,12.4980764 0.826679712,12.3358872 C0.760746253,12.173698 0.604451631,12.0675797 0.430717591,12.0670414 L0.430717591,12.0670414 C0.193820973,12.0663122 0.00109123907,12.2593046 4.46144081e-06,12.4983392 M19.5108475,12.1245055 C19.3241763,12.2326754 19.2459354,12.4637426 19.3279839,12.6645535 C19.4100323,12.8653644 19.6269297,12.9736546 19.8349142,12.9176483 C20.0428987,12.8616419 20.1774818,12.6587046 20.1494604,12.4433453 C20.121439,12.227986 19.9395016,12.0669799 19.7242381,12.0670434 C19.6493553,12.0670655 19.575784,12.0868769 19.5108475,12.1245055 M9.4625071,11.3022035 C8.90796524,11.6232792 8.67542688,12.3095453 8.91907086,12.9059898 C9.16271485,13.5024344 9.80696289,13.8240405 10.4246621,13.6575751 C11.0423614,13.4911097 11.4419016,12.8882103 11.3583776,12.2486146 C11.2748536,11.6090189 10.7341743,11.1311292 10.094824,11.131798 C9.87295243,11.1321532 9.65500827,11.1908876 9.4625071,11.3022035 M4.77838725,8.6523434 C4.22348803,8.97352431 3.99074597,9.66016161 4.23448743,10.2569605 C4.47822889,10.8537595 5.12283712,11.175573 5.74088594,11.0090134 C6.35893477,10.8424538 6.75868477,10.2391934 6.67507012,9.59924144 C6.59145547,8.95928951 6.05041623,8.48118058 5.41070415,8.48193774 C5.18882858,8.48226266 4.97087681,8.54099906 4.77838725,8.6523434 M14.1119346,8.6523434 C13.5570354,8.97352431 13.3242933,9.66016161 13.5680348,10.2569605 C13.8117763,10.8537595 14.4563845,11.175573 15.0744333,11.0090134 C15.6924821,10.8424538 16.0922321,10.2391934 16.0086175,9.59924144 C15.9250028,8.95928951 15.3839636,8.48118058 14.7442515,8.48193774 C14.5223799,8.48229315 14.3044358,8.5410275 14.1119346,8.6523434 M9.66803831,7.06718284 C9.66724912,7.2424848 9.77122249,7.40099571 9.9314525,7.46875977 C10.0916825,7.53652384 10.2765922,7.5001866 10.3999089,7.37670176 C10.5232256,7.25321692 10.560647,7.06692003 10.4947136,6.90473086 C10.4287801,6.74254169 10.2724855,6.63642337 10.0987514,6.63588707 L10.0987514,6.63588707 C9.86236543,6.63588707 9.670433,6.82866461 9.66935197,7.06718284 M6.94117775e-06,6.86903777 C-0.000712939702,7.10832854 0.190948824,7.30290275 0.428097983,7.30363398 C0.665247143,7.3043611 0.858080548,7.11096911 0.858805972,6.87167835 C0.859527314,6.63238759 0.667866746,6.43781218 0.430717591,6.4370795 L0.430717591,6.4370795 C0.31683361,6.43673064 0.207475939,6.4820432 0.12670229,6.56305082 C0.0459286406,6.64405845 0.000355651853,6.75412534 6.94117775e-06,6.86903777 M19.0919212,5.75282055 C18.5540943,6.06314767 18.3151673,6.71865155 18.5255609,7.30664821 C18.7359545,7.89464488 19.3347752,8.24495222 19.9450248,8.13702811 C20.5552744,8.029104 21.0003302,7.49418459 20.9999998,6.86903777 L20.9999998,6.86177245 C20.9976013,6.40430856 20.7545282,5.9825716 20.3616612,5.7542421 C19.9687942,5.5259126 19.4852894,5.52537129 19.0919212,5.75282055 M4.77838725,2.95303071 C4.22207216,3.27395472 3.98801816,3.96148685 4.23146528,4.55961049 C4.4749124,5.15773413 5.12030649,5.48082077 5.73957965,5.31457806 C6.35885282,5.14833535 6.75981278,4.54435695 6.67651645,3.90324113 C6.59322013,3.26212532 6.05151866,2.78284327 5.41070415,2.78328613 C5.18888752,2.78340936 4.97093957,2.84191707 4.77838725,2.95303071 M14.1119346,2.95303071 C13.5556195,3.27395472 13.3215655,3.96148685 13.5650126,4.55961049 C13.8084598,5.15773413 14.4538539,5.48082077 15.073127,5.31457806 C15.6924002,5.14833535 16.0933601,4.54435695 16.0100638,3.90324113 C15.9267675,3.26212532 15.385066,2.78284327 14.7442515,2.78328613 C14.5224389,2.78343984 14.3044985,2.84194551 14.1119346,2.95303071 M9.46447082,0.170413455 C8.90976875,0.49158612 8.67728425,1.17813804 8.92123061,1.77466063 C9.16517698,2.37118322 9.80983567,2.69252178 10.427587,2.5255237 C11.0453384,2.35852562 11.4444385,1.75502544 11.3601534,1.11534127 C11.2758684,0.4756571 10.7343593,-0.00165944837 10.094824,4.33614753e-06 C9.87294844,0.000332714689 9.65499666,0.0590691171 9.4625071,0.170413455" id="Shape" fill="url(#linearGradient-1)"></path>
                <path d="M27.3015797,9.08520773 C27.9943664,7.5927494 29.2047899,7.01850643 30.2478768,7.01850643 C30.3987469,7.01799671 30.5494172,7.02972143 30.6984486,7.0535856 L30.6984486,8.54538238 C30.5269973,8.5206077 30.3539858,8.50866763 30.1808119,8.50965864 C28.0191088,8.50965864 27.3269732,10.3917703 27.3269732,12.1144483 L27.3269732,16.8319661 L26,16.8319661 L26,7.17332628 L27.3022308,7.17332628 L27.3015797,9.08520773 Z M38.9018514,11.2412014 C38.7267014,9.48279968 37.6836145,8.24636147 35.9477409,8.24636147 C34.3622749,8.24636147 33.0828332,9.63561789 32.8679651,11.2412014 L38.9018514,11.2412014 Z M32.8516872,12.4425774 C32.9513079,14.3240275 34.3368814,15.7463615 36.122891,15.7463615 C37.4667931,15.7463615 38.5183445,15.0484255 38.9435228,13.6790156 L40.1292039,14.075946 C39.5946382,15.948796 37.9421073,17 36.13982,17 C33.4858736,17 31.5077851,14.7652818 31.5077851,11.9913998 C31.5077851,9.35842816 33.3856019,7 35.9477409,7 C38.7683728,7 40.2542181,9.13747023 40.2542181,11.9616301 C40.2542181,12.1204022 40.2457536,12.2791744 40.2372891,12.4386081 L32.8516872,12.4425774 Z M41.8227551,7.17729558 L41.8227551,8.38727177 L47.3897916,8.38727177 L41.6892764,15.6239746 L41.6892764,16.8346123 L49,16.8346123 L49,15.6239746 L43.2832069,15.6239746 L48.9837221,8.37139455 L48.9837221,7.18060333 L41.8227551,7.17729558 Z" id="Shape" fill="#FFFFFF"></path>
            </g>
        </g>
    </g>
</svg>