<?xml version="1.0" encoding="UTF-8"?>
<svg width="483px" height="458px" viewBox="0 0 483 458" version="1.1" xmlns="http://www.w3.org/2000/svg" xmlns:xlink="http://www.w3.org/1999/xlink">
    <!-- Generator: Sketch 64 (93537) - https://sketch.com -->
    <title>Group 3</title>
    <desc>Created with Sketch.</desc>
    <defs>
        <linearGradient x1="21.7415784%" y1="83.1769302%" x2="78.728202%" y2="19.5888634%" id="linearGradient-1">
            <stop stop-color="#00D9B2" offset="0%"></stop>
            <stop stop-color="#006BF7" offset="100%"></stop>
        </linearGradient>
    </defs>
    <g id="Page-1" stroke="none" stroke-width="1" fill="none" fill-rule="evenodd">
        <g id="Group-3">
            <g id="Group-2">
                <g id="method2">
                    <g id="Group" transform="translate(20.000000, 0.000000)" fill-rule="nonzero">
                        <circle id="Oval" fill="#F6F9FE" cx="28.9" cy="182" r="12.9"></circle>
                        <circle id="Oval" fill="#F6F9FE" cx="243.3" cy="133.7" r="38.8"></circle>
                        <path d="M421.4,93.4 L391.9,85.6 C385.5,83.9 381.7,77.4 383.4,71 L391.2,41.5 C392.9,35.1 399.4,31.3 405.8,33 L435.3,40.8 C441.7,42.5 445.5,49 443.8,55.4 L436,84.9 C434.4,91.3 427.8,95.1 421.4,93.4 Z" id="Path" fill="#F6F9FE"></path>
                        <path d="M60.3,69 L43.6,64.6 C40,63.6 37.8,59.9 38.8,56.3 L43.2,39.6 C44.2,36 47.9,33.8 51.5,34.8 L68.2,39.2 C71.8,40.2 74,43.9 73,47.5 L68.6,64.2 C67.7,67.8 63.9,70 60.3,69 Z" id="Path" fill="#F6F9FE"></path>
                        <path d="M103.9,450.8 L87.2,446.4 C83.6,445.4 81.4,441.7 82.4,438.1 L86.8,421.4 C87.8,417.8 91.5,415.6 95.1,416.6 L111.8,421 C115.4,422 117.6,425.7 116.6,429.3 L112.2,446 C111.3,449.6 107.6,451.7 103.9,450.8 Z" id="Path" fill="#F6F9FE"></path>
                        <path d="M426.5,457.4 L405.3,451.8 C398.9,450.1 395.1,443.6 396.8,437.2 L402.4,416 C404.1,409.6 410.6,405.8 417,407.5 L438.2,413.1 C444.6,414.8 448.4,421.3 446.7,427.7 L441.1,448.9 C439.5,455.3 432.9,459.1 426.5,457.4 Z" id="Path" fill="#F6F9FE"></path>
                        <path d="M237.7,409.8 L225.3,406.5 C222.3,405.7 220.6,402.7 221.4,399.7 L224.7,387.3 C225.5,384.3 228.5,382.6 231.5,383.4 L243.9,386.7 C246.9,387.5 248.6,390.5 247.8,393.5 L244.5,405.9 C243.7,408.8 240.6,410.6 237.7,409.8 Z" id="Path" fill="#F6F9FE"></path>
                        <path d="M408.3,157.3 C401.8,157.3 396.5,162.6 396.5,169.1 C396.5,175.6 401.8,180.9 408.3,180.9 C414.8,180.9 420.1,175.6 420.1,169.1 L420.1,169.1 L420.1,169.1 C420.1,162.6 414.8,157.4 408.3,157.3 L408.3,157.3 Z M408.5,169.5 L407.3,173.6 L413.9,173.6 C414.1,173.6 414.2,173.7 414.2,173.9 L414.2,173.9 L414.2,174 L413.6,176 C413.5,176.2 413.4,176.3 413.2,176.3 L403.2,176.3 L404.9,170.6 L403,171.2 L403.4,169.9 L405.3,169.3 L407.7,161.3 C407.8,161.1 407.9,161 408.1,161 L410.6,161 C410.8,161 410.9,161.1 410.9,161.3 L410.9,161.3 L410.9,161.4 L408.9,168.2 L410.8,167.6 L410.4,169 L408.5,169.5 Z" id="Shape" fill="#6D30ED"></path>
                        <g transform="translate(129.000000, 0.000000)">
                            <circle id="Oval" fill="#6D30ED" cx="16.8" cy="16.1" r="16"></circle>
                            <path d="M23.9,14.1 C24.2,12 22.6,10.9 20.4,10.1 L21.1,7.3 L19.4,6.9 L18.7,9.7 C18.2,9.6 17.8,9.5 17.3,9.4 L18,6.6 L16.3,6.2 L15.6,9 C15.2,8.9 14.9,8.8 14.5,8.7 L14.5,8.7 L12.1,8.1 L11.6,9.9 L12.9,10.2 C13.6,10.4 13.7,10.8 13.7,11.2 L13,14.5 C13,14.5 13.1,14.5 13.2,14.6 L13,14.6 L11.9,19.1 C11.8,19.3 11.6,19.6 11.1,19.5 L9.8,19.2 L8.9,21.2 L11.2,21.8 C11.6,21.9 12,22 12.4,22.1 L11.7,25 L13.4,25.4 L14.1,22.6 C14.6,22.7 15,22.8 15.5,23 L14.8,25.8 L16.5,26.2 L17.2,23.3 C20.1,23.9 22.4,23.6 23.3,21 C24.1,18.9 23.3,17.6 21.7,16.8 C22.9,16.4 23.7,15.6 23.9,14.1 Z M20,19.6 C19.5,21.7 15.9,20.6 14.7,20.3 L15.6,16.5 C16.8,16.8 20.6,17.4 20,19.6 Z M20.5,14.1 C20,16.1 17,15.1 16,14.8 L16.9,11.4 C17.9,11.6 21,12 20.5,14.1 Z" id="Shape" fill="#FFFFFF"></path>
                        </g>
                        <g transform="translate(169.000000, 354.000000)" id="Path">
                            <polygon fill="#6D30ED" points="3.7 0 3.8 0.9 14.2 24.4 14.6 24.5 22.6 13.2"></polygon>
                            <polygon fill="#8D67F4" points="3.7 0 0.9 22.9 14.6 24.5 9.5 13.1"></polygon>
                            <polygon fill="#6D30ED" points="15.5 26.5 15.4 26.8 19.2 35.1 19.5 35.4 23.5 15.3"></polygon>
                            <polygon fill="#8D67F4" points="19.5 35.4 15.5 26.5 1.8 25"></polygon>
                            <polygon fill="#4C22BF" points="14.6 24.5 22.6 13.2 9.5 13.1"></polygon>
                            <polygon fill="#6D30ED" points="0.9 22.9 14.6 24.5 9.5 13.1"></polygon>
                        </g>
                        <g transform="translate(235.000000, 232.000000)">
                            <circle id="Oval" fill="#767DFF" cx="16" cy="16.5" r="16"></circle>
                            <path d="M16,26.5 C15.4,26.5 14.7,26.3 14.2,26 L8.9,22.9 C7.8,22.2 7,21 7,19.6 L7,13.4 C7,12.1 7.7,10.8 8.9,10.1 L14.2,7 C14.8,6.7 15.4,6.5 16.1,6.5 C16.7,6.5 17.4,6.7 17.9,7 L23.2,10.1 C24.3,10.8 25.1,12 25.1,13.4 L25.1,19.6 C25.1,20.9 24.4,22.2 23.2,22.9 L17.9,26 C17.3,26.3 16.6,26.5 16,26.5 Z M12.9,20.1 L11.9,21.1 C12.4,21.6 13.1,21.9 13.9,21.9 C15.4,21.9 16.7,20.6 16.7,19.1 L16.7,18.2 C17.1,18.4 17.6,18.6 18.1,18.6 C18.8,18.6 19.6,18.3 20.1,17.8 L19.1,16.8 C18.8,17.1 18.5,17.2 18.1,17.2 C17.3,17.2 16.7,16.6 16.7,15.8 L16.7,11.1 L15.3,11.1 L15.3,19.1 C15.3,19.9 14.7,20.5 13.9,20.5 C13.6,20.5 13.2,20.3 12.9,20.1 Z" id="Shape" fill="#FFFFFF"></path>
                        </g>
                        <g transform="translate(427.000000, 32.000000)">
                            <circle id="Oval" fill="#767DFF" cx="16.1" cy="16.6" r="16"></circle>
                            <path d="M13.9,7.1 L18.4,7.1 C18.7,7.1 19,7.3 19.2,7.5 L26.1,19.8 C26.2,20.1 26.2,20.4 26.1,20.6 L23.9,24.5 C23.7,24.8 23.5,24.9 23.1,24.9 L9.2,24.9 C8.9,24.9 8.6,24.7 8.4,24.5 L6.2,20.6 C6.1,20.3 6.1,20 6.2,19.8 L13.1,7.5 C13.3,7.2 13.6,7.1 13.9,7.1 Z M16.1,12 L11.4,20.3 L20.7,20.3 L16.1,12 Z" id="Shape" fill="#FFFFFF"></path>
                        </g>
                        <g transform="translate(0.000000, 148.000000)">
                            <circle id="Oval" fill="#767DFF" cx="16.5" cy="16.4" r="16"></circle>
                            <g transform="translate(6.000000, 8.000000)" fill="#FFFFFF" id="Path">
                                <path d="M13.6,0.4 L6.3,0.4 L5.7,3.8 L12.3,3.8 C15.5,3.8 16.5,5 16.5,6.9 C16.5,7.9 16.1,9.6 15.9,10.1 C15.4,11.6 14.4,13.2 10.5,13.2 L4.1,13.2 L3.5,16.6 L10.8,16.6 C13.4,16.6 14.4,16.3 15.6,15.8 C18.2,14.6 19.7,12.1 20.3,8.8 C21.1,3.8 20,0.4 13.6,0.4 L13.6,0.4 Z"></path>
                                <path d="M10.3,8.2 C10.5,7.2 10.6,6.8 10.6,6.8 L3.2,6.8 C1.3,6.8 1,8 0.8,8.8 C0.6,9.8 0.5,10.2 0.5,10.2 L8,10.2 C9.9,10.1 10.2,8.9 10.3,8.2 Z"></path>
                            </g>
                        </g>
                    </g>
                    <g id="Group" transform="translate(84.000000, 149.000000)" stroke="#6F7592" stroke-width="3">
                        <path d="M5.2,57.6 C5.2,57.6 16.9,10.3 96.1,5.4" id="Path"></path>
                        <polyline id="Path" points="11 55.1 4.8 59.2 0.7 52.9"></polyline>
                        <polyline id="Path" points="91.6 0.6 97.8 4.9 93.5 11"></polyline>
                    </g>
                    <g id="Group" transform="translate(307.000000, 149.000000)" stroke="#6F7592" stroke-width="3">
                        <path d="M92.8,57.6 C92.8,57.6 81.1,10.3 1.9,5.4" id="Path"></path>
                        <polyline id="Path" points="87 55.1 93.2 59.2 97.3 52.9"></polyline>
                        <polyline id="Path" points="6.4 0.6 0.2 4.9 4.5 11"></polyline>
                    </g>
                    <polygon id="Path" fill="#FFFFFF" fill-rule="nonzero" points="36.4 271.9 32.1 270.5 29.5 265.9 28.6 261.5 28.6 258.3 29.3 255.9 31.8 254.8 35.4 244.6 41 234.1 79.3 233.4 82.6 244.6 82.6 253.9 83.8 255.3 86.1 255.1 88 257.4 88.3 263.6 85.8 269.6 82.6 271.4 79.7 272.1 69.9 296.9 70.4 303.4 72 307.7 75.3 312.8 71.7 313.9 64.4 315 57.1 315.4 50.2 314.9 40.5 313.5 44.8 307.5 45.9 302.8 45.9 294.5 38.4 277.7"></polygon>
                    <path d="M82.6,254.4 L78.8,249.2 C79.3,256.5 79.3,264.5 77.5,271.7 C76.9,273.8 75.6,277.8 73.3,277.6 C70.9,277.4 64.3,274.4 58.8,274.2 C53.5,274.1 48.6,276.4 43.4,277 C39.8,277.4 39.2,275.5 38.7,272.3 C37.7,265.9 37.1,260.1 37.1,253.6 C37.1,252.7 36.5,250.1 37.2,249.3 L33.4,254.5 C33.9,272.1 38.1,282.5 38.1,282.5 C38.6,284.6 39.6,287.3 39.8,287.8 C41.7,292.4 45.3,297.2 49.9,299.2 C60.9,304.1 71.5,302.3 77.9,287.7 C82.5,277.1 82.3,265.4 82.6,254.4 Z M67.8,284.3 C65.6,286.8 62.3,287.8 59,287.7 C58.1,287.7 57.3,287.5 56.5,287.3 C54.7,286.9 52.9,286.2 51.4,285.2 C50.7,284.7 47.3,281.5 48.1,280.4 C48.1,280.4 49.5,278.5 58.8,278.7 C68.1,278.9 69.5,280.9 69.5,280.9 C70,281.5 68.2,284 67.8,284.3 Z" id="Shape" fill="#40405B" fill-rule="nonzero"></path>
                    <g id="Group" transform="translate(0.000000, 216.000000)" fill-rule="nonzero">
                        <circle id="Oval" fill="#99E6F2" cx="57.6" cy="79.2" r="44.8"></circle>
                        <polygon id="Path" fill="#FFFFFF" points="36.5 55.9 32.2 54.5 29.6 49.9 28.7 45.5 28.7 42.3 29.5 39.9 31.9 38.8 35.6 28.6 41.1 18.1 79.4 17.4 82.7 28.6 82.7 37.9 83.9 39.3 86.2 39.1 88.1 41.4 88.4 47.6 86 53.6 82.7 55.4 79.9 56.1 70 80.9 70.6 87.4 72.1 91.7 75.4 96.8 71.8 97.9 64.6 99 57.2 99.4 50.3 98.9 40.6 97.5 44.9 91.5 46.1 86.8 46.1 78.5 38.5 61.7"></polygon>
                        <path d="M1.4,125 C1.4,125 7,112.9 17.6,108.9 L26.6,105.4 C26.6,105.4 39,100.6 41.3,98.2 C41.3,98.2 64.3,101.5 74.8,96.7 C74.8,96.7 84.3,103.2 87.3,104.2 C87.3,104.2 101.9,108.1 106.7,113.5 C106.7,113.5 114.9,119.1 114.6,125.1 L1.4,125 L1.4,125 Z" id="Path" fill="#9043FF"></path>
                        <path d="M35.2,44.7 C36.8,39.4 36.7,25.7 43.6,24 C46.5,23.3 56.3,31.3 69.9,24 C75.3,21.1 80.8,39.8 81.8,42.5 L82.2,40.1 L84.7,38.2 C84.7,38.2 95.2,5.68434189e-14 57.3,0.8 C19.4,1.5 30.3,38.5 30.3,38.5 C30.3,38.5 34.7,37.8 35.2,44.7 Z" id="Path" fill="#40405B"></path>
                        <path d="M4.6,120.1 C7.7,114.6 13.5,110.4 19.4,107.8 C21.8,113.3 22.1,119.2 21.6,125.1 L23.1,125.1 C23.6,119 23.3,113 20.8,107.3 C26.5,105.1 32.6,103.9 37.7,100.5 C37.8,100.4 37.9,100.4 38,100.3 C39,99.7 39.9,99 40.7,98.3 C40.8,98.4 40.9,98.5 41.1,98.6 C52.5,100.6 64.1,101.4 75.3,98.1 L75.3,98.1 C75.7,98.5 76.2,98.9 76.7,99.3 C82.1,103.6 89.7,105 96,107.6 C96.3,107.7 96.5,107.8 96.8,107.9 C92.8,112.3 91.9,119 92,125.2 L93.5,125.2 C93.4,119.1 94.3,112.7 98.3,108.6 C103.7,111.2 108.8,115.2 111.7,120.2 C112.6,121.8 113.3,123.6 114,125.2 L115.4,125.2 C114,121.3 111.9,117.3 109,114.1 C104.8,109.3 98.1,106.7 92.1,104.7 C82.2,101.5 72,97.7 71,85.7 C70.7,82.8 70.9,79.8 70.9,76.8 C75.6,73.5 78.5,67.7 80,61.9 C81.9,54.7 82.5,46.9 81.9,39.4 C81.4,39.6 81,39.8 80.5,39.9 C81,46.8 80.4,53.9 78.8,60.6 C76.9,68.6 72.4,77.5 63.1,78 C62.9,78 62.9,79.5 63.1,79.5 C65.5,79.4 67.7,78.7 69.6,77.7 C69.6,80 69.5,82.2 69.7,84.5 C70,88.9 71.5,93.3 74.4,96.7 C63.8,99.6 52.9,99 42.1,97.1 C45.5,93.5 46.5,89.2 46.8,84.5 C47,81.9 46.8,79.3 46.9,76.7 C48.5,77.7 50.4,78.5 52.4,78.9 C53.3,79.1 53.6,77.6 52.6,77.4 C45.1,76 40.9,69.3 38.6,62.6 C36.2,55.7 35.5,48.3 35.5,41.1 C35.5,40.2 34,40.3 34,41.3 C34,48.9 34.9,56.7 37.4,63.9 C39,68.5 41.6,72.9 45.4,75.9 C45.3,79.2 45.5,82.6 45.2,85.9 C44.9,89.8 43.4,93.4 40.8,96.4 C36.6,101.4 30,103 24,104.9 C18,106.8 11.3,109.5 7.1,114.3 C4.3,117.5 2.1,121.5 0.7,125.4 L2.1,125.4 C3,123.5 3.7,121.6 4.6,120.1 Z" id="Path" fill="#38332D"></path>
                        <path d="M82,39.5 C81.3,40 82,41.2 82.7,40.7 C87,37.4 87.8,42.1 87.7,45.6 C87.6,49.7 85.8,54.6 81.1,55.1 C80.2,55.2 80.2,56.6 81.1,56.5 C87.2,55.9 89.1,49.7 89,44.3 C89.1,39.6 86.5,36.1 82,39.5 Z" id="Path" fill="#38332D"></path>
                        <path d="M35.1,39.5 C35.8,40 35.1,41.2 34.4,40.7 C30.1,37.4 29.3,42.1 29.4,45.6 C29.5,49.7 31.3,54.6 36,55.1 C36.9,55.2 36.9,56.6 36,56.5 C29.9,55.9 28,49.7 28.1,44.3 C28,39.6 30.6,36.1 35.1,39.5 Z" id="Path" fill="#38332D"></path>
                        <path d="M82.7,38.6 L78.9,33.4 C79.4,40.7 79.4,48.7 77.6,55.9 C77,58 75.7,62 73.4,61.8 C71,61.6 64.4,58.6 58.9,58.4 C53.6,58.3 48.7,60.6 43.5,61.2 C39.9,61.6 39.3,59.7 38.8,56.5 C37.8,50.1 37.2,44.3 37.2,37.8 C37.2,36.9 36.6,34.3 37.3,33.5 L33.5,38.7 C34,56.3 38.2,66.7 38.2,66.7 C38.7,68.8 39.7,71.5 39.9,72 C41.8,76.6 45.4,81.4 50,83.4 C61,88.3 71.6,86.5 78,71.9 C82.6,61.3 82.4,49.7 82.7,38.6 Z M67.9,68.5 C65.7,71 62.4,72 59.1,71.9 C58.2,71.9 57.4,71.7 56.6,71.5 C54.8,71.1 53,70.4 51.5,69.4 C50.8,68.9 47.4,65.7 48.2,64.6 C48.2,64.6 49.6,62.7 58.9,62.9 C68.2,63.1 69.6,65.1 69.6,65.1 C70.1,65.7 68.3,68.2 67.9,68.5 Z" id="Shape" fill="#40405B"></path>
                    </g>
                    <path d="M82,255.5 C81.3,256 82,257.2 82.7,256.7 C87,253.4 87.8,258.1 87.7,261.6 C87.6,265.7 85.8,270.6 81.1,271.1 C80.2,271.2 80.2,272.6 81.1,272.5 C87.2,271.9 89.1,265.7 89,260.3 C89.1,255.6 86.5,252.1 82,255.5 Z" id="Path" fill="#38332D" fill-rule="nonzero"></path>
                    <path d="M35.1,255.5 C35.8,256 35.1,257.2 34.4,256.7 C30.1,253.4 29.3,258.1 29.4,261.6 C29.5,265.7 31.3,270.6 36,271.1 C36.9,271.2 36.9,272.6 36,272.5 C29.9,271.9 28,265.7 28.1,260.3 C28,255.6 30.6,252.1 35.1,255.5 Z" id="Path" fill="#38332D" fill-rule="nonzero"></path>
                    <path d="M35.2,260.7 C36.8,255.4 36.7,241.7 43.6,240 C46.5,239.3 56.3,247.3 69.9,240 C75.3,237.1 80.8,255.8 81.8,258.5 L82.2,256.1 L84.7,254.2 C84.7,254.2 95.2,216 57.3,216.8 C19.4,217.5 30.3,254.5 30.3,254.5 C30.3,254.5 34.7,253.8 35.2,260.7 Z" id="Path" fill="#40405B" fill-rule="nonzero"></path>
                    <path d="M59.3,285 C54.8,285 52.8,283.6 52.4,282.8 C52,282.1 51.8,281.5 51.9,280.6 C51.9,280.5 52,280.4 52,280.3 C52.1,280.2 52.2,280.2 52.3,280.2 C52.4,280.2 62.9,281.2 65.7,280.6 C65.8,280.6 66,280.6 66.1,280.7 C66.2,280.8 66.2,280.9 66.2,281.1 C66.2,281.1 65.3,284.8 60.1,285 C59.7,285 59.5,285 59.3,285 Z M52.6,281.1 C52.6,281.6 52.8,281.9 53.1,282.5 C53.4,283 55.2,284.4 60,284.3 C63.3,284.2 64.7,282.5 65.1,281.6 C61.9,281.9 54.5,281.3 52.6,281.1 Z" id="Shape" fill="#38332D" fill-rule="nonzero"></path>
                    <path d="M70.7,264 C70.6,264 70.5,264 70.4,263.9 C69.8,263.1 69.1,262.8 68.3,262.7 L68.3,262.7 C67,262.7 66,263.8 66,263.9 C65.9,264.1 65.6,264.1 65.4,263.9 C65.2,263.8 65.2,263.5 65.4,263.3 C65.5,263.2 66.7,261.9 68.3,261.9 L68.3,261.9 C69.3,261.9 70.2,262.4 71,263.3 C71.1,263.5 71.1,263.7 71,263.9 C70.9,264 70.8,264 70.7,264 Z" id="Path" fill="#38332D" fill-rule="nonzero"></path>
                    <path d="M51.1,264 C51,264 50.9,264 50.8,263.9 C50.2,263.1 49.5,262.7 48.7,262.7 L48.7,262.7 C47.4,262.7 46.4,263.8 46.4,263.9 C46.3,264.1 46,264.1 45.8,263.9 C45.6,263.8 45.6,263.5 45.8,263.3 C45.9,263.2 47.1,261.9 48.7,261.9 C49.7,261.9 50.6,262.4 51.4,263.3 C51.5,263.5 51.5,263.7 51.4,263.9 C51.3,264 51.2,264 51.1,264 Z" id="Path" fill="#38332D" fill-rule="nonzero"></path>
                    <g id="Group" transform="translate(374.000000, 217.000000)" fill-rule="nonzero">
                        <polygon id="Path" fill="#FFFFFF" points="43 24 66.1 24 66.1 38 41 38 41 24"></polygon>
                        <g>
                            <circle id="Oval" fill="#CAACF9" cx="54.1" cy="78.7" r="44.8"></circle>
                            <polygon id="Path" fill="#FFFFFF" points="0.7 126.2 3 118.9 4.5 115.5 11 108.1 17 104.6 27.1 100.9 36.9 96.9 41.5 89.7 42.5 85.5 42.8 79.7 42.8 74.1 38.9 70.1 36.7 66.2 34.9 61.8 34.4 59.6 29.5 58.1 26.9 55.1 26.1 51.2 27 48.5 29.3 46.8 32 46.2 32.8 31.1 49.1 21 73.9 22.2 79.9 41.5 76.6 45.4 77.3 46.7 80.3 47.3 82.2 49.4 82.9 52.8 81.3 56.6 79.4 58.3 77.4 59.2 74.9 59.9 70.9 70.3 67 74.7 65.5 75.7 65.8 82.9 66.7 88.6 68.9 93.2 72.6 96.9 80.5 100.8 91.6 104.5 98.2 108.6 100.6 110.8 104.1 115.9 107.4 122.9 107.4 124.1"></polygon>
                            <g>
                                <path d="M89.9,55.6 C85.9,46.7 87.2,34.9 86.3,25.4 C85.7,19.2 83.1,13.1 79.5,8 C76.8,4.3 71.1,0.7 66.4,0.3 C62.5,-0.1 58.1,1.2 55.1,3.8 C52.4,6.2 48.8,8.6 49.1,12.6 C49.1,12.6 50.6,17.3 52.8,24 C60.4,20.9 71.5,27.1 74,34.4 C75.5,38.8 76.2,43.3 76.1,47.8 C77.2,47.3 78.4,47.1 79.4,47.7 C79.7,47.8 80,47.9 80.3,48.1 C80.8,48.4 81.1,48.8 81.4,49.3 C81.5,49.4 81.5,49.4 81.6,49.4 C83.5,50.9 82.9,52.9 81.7,54.5 C80.8,57.1 78.6,58.8 76,58.7 C75.6,58.8 75.1,58.9 74.7,59 C74.6,59 74.4,59 74.3,59 C73.7,61.2 72.9,63.3 71.9,65.3 L71.9,65.4 C71.1,67.9 70.2,70.2 68.5,72 C70.3,73.5 77.6,74.3 79.3,74.4 C84.1,74.6 89.1,73.4 93.1,70.7 C97.8,67.4 99.5,65.2 101.8,58.5 C100.2,63.5 91.8,59.7 89.9,55.6 Z" id="Path" fill="#FFC931"></path>
                                <g transform="translate(0.000000, 10.000000)">
                                    <path d="M90.8,113.5 C89.2,105.5 86.1,92.6 82.4,91.8 C76.9,90.5 74.2,87.2 74.2,87.2 C54.6,118.3 35.6,88.4 35.6,88.4 C35.6,88.4 27.7,89.2 26,91 C22.7,94.6 21.6,106.1 21.1,113.4 L90.8,113.4 L90.8,113.5 Z" id="Path" fill="#54BBD3"></path>
                                    <g>
                                        <g transform="translate(0.000000, 25.000000)" fill="#38332D" id="Shape">
                                            <path d="M49.3,41.6 C42.2,40.2 37.9,33.5 35.7,27.2 C33.5,20.7 32.7,13.6 32.7,6.8 C32.7,5.9 31.3,6.1 31.3,7 C31.3,8.3 31.3,9.6 31.4,10.8 C28,10.9 24.9,14.2 25.5,18 C26.2,21.9 29.5,24.7 33.3,25.2 C33.4,25.2 33.5,25.2 33.6,25.2 C33.9,26.3 34.2,27.3 34.6,28.4 C36.1,32.8 38.6,37 42.2,39.7 C42.1,42.9 42.3,46 42.1,49.2 C41.8,52.9 40.4,56.3 38,59.1 C34,63.8 27.7,65.4 22.1,67.2 C16.5,69 11.4,71.3 7.4,75.8 C4.3,79.4 2,84.1 0.7,88.1 L2,88.1 C2.7,87.1 3.6,83.7 4.8,81.6 C7.9,76.1 12.5,72.2 18.3,69.8 C22,68.3 25.8,67 29.7,66 C41.3,63 43.2,53 43.5,48.1 C43.7,45.6 43.5,43.2 43.5,40.7 C45.1,41.7 47.2,42.8 49.1,43.2 C50,43.2 50.2,41.8 49.3,41.6 Z M27.2,18.7 C26,15.4 28.5,12.2 31.6,12.1 C31.8,16 32.4,19.9 33.4,23.7 C30.4,23.4 28.1,21.4 27.2,18.7 Z"></path>
                                            <path d="M101.3,75.7 C97.3,71.2 92.2,68.8 86.6,67 C81,65.2 74.7,63.7 70.7,59 C68.3,56.2 66.9,52.8 66.6,49.1 C66.4,46.3 66.5,43.5 66.5,40.7 C71,37.6 73.7,32 75.1,26.6 C75.2,26.1 75.3,25.7 75.5,25.2 C75.6,25.2 75.6,25.2 75.7,25.2 C79.5,24.7 82.8,21.9 83.5,18 C84.2,14.1 80.9,10.7 77.5,10.8 C77.4,10.8 77.3,10.8 77.3,10.8 C77.3,7.4 77.1,4.1 76.6,0.8 C76.5,-0.1 75.1,0.3 75.3,1.2 C76.4,9.1 76,17.6 74.2,25.4 C72.4,33 68.1,41.8 59.3,42.3 C58.4,42.4 58.4,43.7 59.3,43.7 C61.6,43.6 63.6,42.6 65.4,41.6 C65.4,43.7 65.3,45.9 65.5,48 C66.1,58.3 71,63.7 80.5,66.6 C84,67.6 87.3,68.6 90.6,69.9 C96.4,72.3 101,76.1 104.1,81.6 C105.3,83.7 106.2,87.1 106.9,88.1 L108.2,88.1 C106.7,84 104.4,79.3 101.3,75.7 Z M77.1,12.1 C77.2,12.1 77.3,12.1 77.3,12.1 C80.4,12.1 82.9,15.3 81.7,18.7 C80.8,21.4 78.5,23.3 75.7,23.7 C76.5,20 77,16.1 77.1,12.1 Z"></path>
                                        </g>
                                        <path d="M70.3,43.2 C74.6,46 65.9,50.8 63.3,47.6 C60.6,44.4 67.9,41.6 70.3,43.2 Z" id="Path" fill="#E84376" opacity="0.2"></path>
                                        <path d="M39,44 C34.5,46.9 43.5,51.9 46.3,48.6 C49.2,45.2 41.6,42.3 39,44 Z" id="Path" fill="#E84376" opacity="0.2"></path>
                                        <path d="M31.4,31.9 C31.4,31.9 49.5,31.1 54.2,19 C54.2,19 59.7,29.3 77,31.1 C77,31.1 86.6,0 54,0 C22.8,0 31.4,31.9 31.4,31.9 Z" id="Path" fill="#FFC931"></path>
                                    </g>
                                </g>
                            </g>
                        </g>
                        <path d="M31.4,41.9 C31.4,41.9 49.5,41.1 54.2,29 C54.2,29 59.7,39.3 77,41.1 C77,41.1 86.6,10 54,10 C22.8,10 31.4,41.9 31.4,41.9 Z" id="Path" fill="#FFC931"></path>
                        <path d="M100.1,60.7 C91.1,57.9 89.1,47.1 90.1,37.3 C91.1,27.5 88.1,18.3 88.1,18.3 C88.1,18.3 84.1,2.5 70.3,0.3 C56.5,-1.9 52.4,12.1 52.4,12.1 L56.1,24 C66.8,22 72.8,26.3 76.2,31.6 L74.8,38.2 L80.4,46.6 C81.8,46.5 83.6,47 85.7,48 C87.8,49 87.2,52.3 87.2,53.7 C87.2,55.1 85.5,57 82.9,58.6 C80.3,60.2 78.6,60.1 78.6,60.1 L71.8,72.1 C97.8,82.2 105,58.8 105,58.8 C103.9,61.8 100.1,60.7 100.1,60.7 Z" id="Path" fill="#FFC931"></path>
                        <path d="M54.9,69.7 C50.4,69.7 48.4,68.3 48,67.5 C47.6,66.8 47.4,66.2 47.5,65.3 C47.5,65.2 47.6,65.1 47.6,65 C47.7,64.9 47.8,64.9 47.9,64.9 C48,64.9 58.5,65.9 61.3,65.3 C61.4,65.3 61.6,65.3 61.7,65.4 C61.8,65.5 61.8,65.6 61.8,65.8 C61.8,65.8 60.9,69.5 55.7,69.7 C55.4,69.7 55.1,69.7 54.9,69.7 Z M48.2,65.7 C48.2,66.2 48.4,66.5 48.7,67.1 C49,67.6 50.8,69 55.6,68.9 C58.9,68.8 60.3,67.1 60.7,66.2 C57.5,66.6 50.1,65.9 48.2,65.7 Z" id="Shape" fill="#38332D"></path>
                        <path d="M66.4,48.7 C66.3,48.7 66.2,48.7 66.1,48.6 C65.5,47.8 64.8,47.5 64,47.4 L64,47.4 C62.7,47.4 61.7,48.5 61.7,48.6 C61.6,48.8 61.3,48.8 61.1,48.6 C60.9,48.5 60.9,48.2 61.1,48 C61.2,47.9 62.4,46.6 64,46.6 L64,46.6 C65,46.6 65.9,47.1 66.7,48 C66.8,48.2 66.8,48.4 66.7,48.6 C66.6,48.7 66.5,48.7 66.4,48.7 Z" id="Path" fill="#38332D"></path>
                        <path d="M46.8,48.7 C46.7,48.7 46.6,48.7 46.5,48.6 C45.9,47.8 45.2,47.4 44.4,47.4 L44.4,47.4 C43.1,47.4 42.1,48.5 42.1,48.6 C42,48.8 41.7,48.8 41.5,48.6 C41.3,48.5 41.3,48.2 41.5,48 C41.6,47.9 42.8,46.6 44.4,46.6 C45.4,46.6 46.3,47.1 47.1,48 C47.2,48.2 47.2,48.4 47.1,48.6 C46.9,48.7 46.8,48.7 46.8,48.7 Z" id="Path" fill="#38332D"></path>
                    </g>
                    <g id="Group" transform="translate(219.000000, 114.000000)" fill-rule="nonzero">
                        <path d="M20.2,34.4 C20.2,18.9 30.6,5.9 44.7,1.7 C41.7,0.8 38.4,0.3 35,0.3 C16.1,0.3 0.9,15.6 0.9,34.4 C0.9,53.3 16.2,68.5 35,68.5 C38.4,68.5 41.6,68 44.7,67.1 C30.6,63 20.2,49.9 20.2,34.4 Z" id="Path" fill="#767DFF"></path>
                        <path d="M45.7,21.1 C54.1,21.1 61.1,26.7 63.3,34.2 C63.8,32.5 64.1,30.8 64.1,29 C64.1,18.9 55.9,10.6 45.7,10.6 C35.5,10.6 27.3,18.8 27.3,29 C27.3,30.8 27.6,32.6 28.1,34.2 C30.3,26.7 37.4,21.1 45.7,21.1 Z" id="Path" fill="#6D30ED"></path>
                        <path d="M52.2,40.4 C52.2,46.6 48.1,51.8 42.4,53.5 C43.6,53.8 44.9,54 46.2,54 C53.8,54 59.9,47.9 59.9,40.3 C59.9,32.7 53.8,26.6 46.2,26.6 C44.9,26.6 43.6,26.8 42.4,27.1 C48,29 52.2,34.2 52.2,40.4 Z" id="Path" fill="#9FA8FF"></path>
                    </g>
                </g>
                <circle id="Oval" stroke="#979797" fill="#FFFFFF" cx="254" cy="148" r="35.5"></circle>
                <circle id="Oval" fill="#4C22BF" cx="165.5" cy="16.5" r="16.5"></circle>
                <circle id="Oval" fill="#767DFF" cx="462.5" cy="48.5" r="14.5"></circle>
                <circle id="Oval" fill="#767DFF" cx="35.5" cy="163.5" r="14.5"></circle>
                <circle id="Oval" fill="#767DFF" cx="269.5" cy="248.5" r="14.5"></circle>
                <ellipse id="Oval" fill="#6D30ED" cx="428" cy="168.5" rx="9" ry="9.5"></ellipse>
                <circle id="Oval" fill="#767DFF" cx="462.5" cy="48.5" r="14.5"></circle>
                <rect id="Rectangle" fill="#FFFFFF" x="189" y="352" width="33" height="38" rx="8"></rect>
                <text id="£" font-family="Helvetica-Bold, Helvetica" font-size="20" font-weight="bold" fill="#EEEEDD">
                    <tspan x="458" y="55">£</tspan>
                </text>
                <text id="€" font-family="Helvetica-Bold, Helvetica" font-size="18" font-weight="bold" fill="#EEEEDD">
                    <tspan x="158" y="23">€</tspan>
                </text>
                <text id="€" font-family="Helvetica-Bold, Helvetica" font-size="13" font-weight="bold" fill="#EEEEDD">
                    <tspan x="423" y="174">€</tspan>
                </text>
                <text id="$" font-family="Helvetica-Bold, Helvetica" font-size="20" font-weight="bold" fill="#EEEEDD">
                    <tspan x="266" y="256">$</tspan>
                </text>
                <text id="£" font-family="Helvetica-Bold, Helvetica" font-size="15" font-weight="bold" fill="#EEEEDD">
                    <tspan x="32" y="169">£</tspan>
                </text>
            </g>
            <g id="rez-nav-logo-light" transform="translate(226.000000, 134.000000)" fill-rule="nonzero">
                <path d="M10.0886528,26.511077 C10.0878935,26.7799925 10.2882666,26.9987715 10.5364426,27 L10.5364426,27 C10.7848863,27 10.9862897,26.7817671 10.9862897,26.5125631 C10.9862897,26.2433592 10.7848863,26.0251257 10.5364426,26.0251257 L10.5364426,26.0251257 C10.4173176,26.024929 10.3029993,26.0760165 10.2186366,26.16715 C10.1342739,26.2582835 10.0867773,26.3819978 10.0865955,26.511077 M15.2234924,23.1242824 C15.0282502,23.2458909 14.9465151,23.5055308 15.0324733,23.7310739 C15.1184316,23.956617 15.3454232,24.0781105 15.5629639,24.0150105 C15.7805047,23.9519104 15.9211239,23.7237872 15.891598,23.4818753 C15.8620722,23.2399633 15.6715588,23.0592921 15.4463587,23.0596371 C15.3681088,23.0595134 15.2912204,23.0818157 15.2234924,23.1242824 M5.14307799,22.6182695 C4.72224731,22.881515 4.54687905,23.4421289 4.73325392,23.9283873 C4.91962879,24.4146456 5.40992861,24.6756987 5.87905226,24.5384512 C6.3481759,24.4012036 6.65058936,23.9082331 6.58577257,23.3864115 C6.52095577,22.86459 6.10901653,22.4757996 5.62309773,22.4778262 C5.45453758,22.4785743 5.28907573,22.5269821 5.14307799,22.6182695 M7.27171002e-06,20.1662242 C-0.000746889211,20.4354263 0.200041625,20.6543223 0.448483601,20.655145 C0.696925578,20.655963 0.898941527,20.438397 0.899701495,20.1691949 C0.900457187,19.8999928 0.699669924,19.6810954 0.451227952,19.6802729 L0.451227952,19.6802729 C0.202939238,19.6798612 0.00114284939,19.8971907 7.27171002e-06,20.1662242 M10.0879649,20.1662242 C10.0872107,20.4354263 10.2879992,20.6543223 10.5364412,20.655145 C10.7848832,20.655963 10.9868991,20.438397 10.9876591,20.1691949 C10.9884148,19.8999928 10.7876275,19.6810954 10.5391856,19.6802735 L10.5391856,19.6802735 C10.2912765,19.6802735 10.0900943,19.8976008 10.0893385,20.1662242 M20.1814106,19.3243554 C19.7616901,19.5880016 19.5874791,20.1480202 19.7742585,20.6331855 C19.961038,21.1183508 20.4508862,21.378209 20.9190921,21.2405052 C21.387298,21.1028014 21.6886671,20.6102387 21.6234277,20.0893273 C21.5581882,19.5684159 21.1465715,19.1806949 20.6614303,19.1831652 C20.4928039,19.1841087 20.32733,19.2327762 20.1814106,19.3243554 M5.08273266,16.3581237 C4.55641454,16.6869852 4.33665823,17.3876784 4.56907272,17.9959288 C4.80148722,18.6041792 5.41404097,18.9314736 6.00086013,18.760949 C6.58767928,18.5904244 6.9668927,17.9749309 6.8872362,17.3222903 C6.8075797,16.6696497 6.293741,16.182133 5.68618604,16.1827647 C5.47432964,16.1829162 5.26622937,16.2433884 5.08273266,16.3581237 M14.8415339,15.9620812 C14.3163245,16.2913422 14.0977232,16.9914403 14.3305413,17.5985994 C14.5633593,18.2057586 15.1754619,18.5318604 15.7613649,18.3608806 C16.3472679,18.1899007 16.725439,17.5748145 16.6453608,16.9230824 C16.5652826,16.2713503 16.051766,15.7849009 15.4449873,15.785978 C15.2330729,15.7863914 15.0249767,15.8471186 14.8415339,15.9620812 M4.67389037e-06,14.0606316 C-0.000822100506,14.2578463 0.108102381,14.4361711 0.275962395,14.5124056 C0.443822409,14.5886402 0.637537269,14.5477608 0.766726222,14.4088404 C0.895915175,14.2699199 0.93511856,14.0603359 0.866045412,13.8778731 C0.796972265,13.6954103 0.633235042,13.5760272 0.451227952,13.5754215 L0.451227952,13.5754215 C0.203050544,13.5746012 0.00114320284,13.7917177 4.67389037e-06,14.0606316 M20.4399355,13.6400687 C20.2443751,13.7617598 20.1624086,14.0217105 20.248364,14.2476227 C20.3343195,14.4735349 20.5615454,14.5953614 20.7794339,14.5323543 C20.9973225,14.4693472 21.1383143,14.2410427 21.1089586,13.9987635 C21.0796028,13.7564843 20.8890017,13.5753523 20.6634875,13.5754238 C20.5850389,13.5754487 20.5079642,13.5977365 20.4399355,13.6400687 M9.91310268,12.7149789 C9.33215406,13.0761891 9.08854244,13.8482384 9.34378852,14.5192386 C9.5990346,15.1902387 10.2739611,15.5520455 10.9210746,15.364772 C11.5681881,15.1774984 11.9867541,14.4992366 11.8992527,13.7796914 C11.8117514,13.0601462 11.2453255,12.5225204 10.5755299,12.5232727 C10.343093,12.5236724 10.1147706,12.5897485 9.91310268,12.7149789 M5.0059295,9.73388632 C4.42460651,10.0952148 4.18078149,10.8676818 4.43612969,11.5390806 C4.69147789,12.2104794 5.36678174,12.5725197 6.01426146,12.3851401 C6.66174119,12.1977605 7.0805269,11.5190925 6.9929306,10.7991466 C6.9053343,10.0792007 6.33853129,9.54132816 5.66835673,9.54217996 C5.43591566,9.54254549 5.20758522,9.60862394 5.0059295,9.73388632 M14.7839315,9.73388632 C14.2026085,10.0952148 13.9587835,10.8676818 14.2141317,11.5390806 C14.4694799,12.2104794 15.1447837,12.5725197 15.7922635,12.3851401 C16.4397432,12.1977605 16.8585289,11.5190925 16.7709326,10.7991466 C16.6833363,10.0792007 16.1165333,9.54132816 15.4463587,9.54217996 C15.2139218,9.5425798 14.9855994,9.60865594 14.7839315,9.73388632 M10.1284211,7.9505807 C10.1275943,8.1477954 10.2365188,8.32612017 10.4043788,8.40235474 C10.5722388,8.47858932 10.7659537,8.43770992 10.8951426,8.29878948 C11.0243316,8.15986904 11.063535,7.95028503 10.9944618,7.76782222 C10.9253887,7.58535941 10.7616515,7.46597629 10.5796444,7.46537296 L10.5796444,7.46537296 C10.3320019,7.46537296 10.1309298,7.68224769 10.1297973,7.9505807 M7.27171002e-06,7.72766749 C-0.000746889211,7.99686961 0.200041625,8.2157656 0.448483601,8.21658823 C0.696925578,8.21740624 0.898941527,7.99984025 0.899701495,7.73063815 C0.900457187,7.46143604 0.699669924,7.2425387 0.451227952,7.24171444 L0.451227952,7.24171444 C0.331920924,7.24132197 0.217355746,7.2922986 0.132735732,7.38343218 C0.0481157187,7.47456576 0.000372587656,7.59839101 7.27171002e-06,7.72766749 M20.0010603,6.47192312 C19.4376226,6.82104113 19.1873181,7.55848299 19.4077305,8.21997924 C19.6281428,8.88147549 20.2554787,9.27557125 20.8947878,9.15415663 C21.5340969,9.03274201 22.000346,8.43095766 21.9999998,7.72766749 L21.9999998,7.71949401 C21.9974871,7.20484712 21.742839,6.73039305 21.3312641,6.47352236 C20.9196891,6.21665167 20.4131603,6.2160427 20.0010603,6.47192312 M5.0059295,3.32215955 C4.42312322,3.68319906 4.17792378,4.45667271 4.43296362,5.1295618 C4.68800346,5.80245089 5.36413061,6.16592337 6.01289297,5.97890032 C6.66165534,5.79187727 7.08170862,5.11240157 6.99444581,4.39114627 C6.907183,3.66989098 6.33968621,3.13069868 5.66835673,3.1311969 C5.4359774,3.13133552 5.20765098,3.1971567 5.0059295,3.32215955 M14.7839315,3.32215955 C14.2011252,3.68319906 13.9559258,4.45667271 14.2109656,5.1295618 C14.4660055,5.80245089 15.1421326,6.16592337 15.790895,5.97890032 C16.4396573,5.79187727 16.8597106,5.11240157 16.7724478,4.39114627 C16.685185,3.66989098 16.1176882,3.13069868 15.4463587,3.1311969 C15.2139836,3.13136982 14.9856651,3.1971887 14.7839315,3.32215955 M9.91515991,0.191715137 C9.33404346,0.553034385 9.09048826,1.3254053 9.34605112,1.99649321 C9.60161397,2.66758112 10.2769707,3.02908701 10.9241388,2.84121417 C11.5713069,2.65334133 11.9894118,1.97440362 11.9011131,1.25475893 C11.8128145,0.535114237 11.2455193,-0.00186687942 10.5755299,4.87816597e-06 C10.3430888,0.000374304025 10.1147584,0.0664527568 9.91310268,0.191715137" id="Shape" fill="url(#linearGradient-1)"></path>
                <path d="M29.4147605,11.0852077 C30.1677896,9.5927494 31.4834673,9.01850643 32.6172574,9.01850643 C32.7812466,9.01799671 32.9450187,9.02972143 33.1070094,9.0535856 L33.1070094,10.5453824 C32.9206492,10.5206077 32.7325933,10.5086676 32.5443608,10.5096586 C30.1946835,10.5096586 29.4423621,12.3917703 29.4423621,14.1144483 L29.4423621,18.8319661 L28,18.8319661 L28,9.17332628 L29.4154682,9.17332628 L29.4147605,11.0852077 Z M42.0237516,13.2412014 C41.8333711,11.4827997 40.699581,10.2463615 38.8127619,10.2463615 C37.0894293,10.2463615 35.6987317,11.6356179 35.4651795,13.2412014 L42.0237516,13.2412014 Z M35.4474861,14.4425774 C35.5557694,16.3240275 37.0618277,17.7463615 39.0031423,17.7463615 C40.4639056,17.7463615 41.6068962,17.0484255 42.0690465,15.6790156 L43.3578304,16.075946 C42.7767807,17.948796 40.9805515,19 39.0215434,19 C36.1368192,19 33.9867229,16.7652818 33.9867229,13.9913998 C33.9867229,11.3584282 36.0278281,9 38.8127619,9 C41.8786661,9 43.4937153,11.1374702 43.4937153,13.9616301 C43.4937153,14.1204022 43.4845148,14.2791744 43.4753142,14.4386081 L35.4474861,14.4425774 Z M45.1986468,9.17729558 L45.1986468,10.3872718 L51.2497735,10.3872718 L45.0535613,17.6239746 L45.0535613,18.8346123 L53,18.8346123 L53,17.6239746 L46.7860944,17.6239746 L52.9823066,10.3713945 L52.9823066,9.18060333 L45.1986468,9.17729558 Z" id="Shape" fill="#001446"></path>
            </g>
        </g>
    </g>
</svg>